<svg width="40" height="40" viewBox="0 0 40 40" fill="none" xmlns="http://www.w3.org/2000/svg">
  <rect width="40" height="40" rx="20" fill="#FBBA80"/>
  <path d="M13 16C15.2091 16 17 14.2091 17 12C17 14.2091 18.7909 16 21 16C18.7909 16 17 17.7909 17 20C17 17.7909 15.2091 16 13 16Z" fill="#101010"/>
  <path d="M19 28C21.2091 28 23 26.2091 23 24C23 26.2091 24.7909 28 27 28C24.7909 28 23 29.7909 23 32C23 29.7909 21.2091 28 19 28Z" fill="#101010"/>
  <path d="M26 15L14 25" stroke="#101010" stroke-width="2"/>
</svg>