<svg width="40" height="40" viewBox="0 0 40 40" fill="none" xmlns="http://www.w3.org/2000/svg">
  <rect width="40" height="40" rx="20" fill="#FBBA80"/>
  <rect x="12" y="12" width="16" height="16" fill="#101010"/>
  <rect x="14" y="14" width="5" height="5" fill="#FBBA80"/>
  <rect x="21" y="14" width="5" height="5" fill="#FBBA80"/>
  <rect x="14" y="21" width="5" height="5" fill="#FBBA80"/>
  <rect x="21" y="21" width="5" height="5" fill="#FBBA80"/>
  <path d="M10 20L14 16L10 12L6 16L10 20Z" fill="#101010"/>
  <path d="M30 20L26 16L30 12L34 16L30 20Z" fill="#101010"/>
  <path d="M10 30L14 26L10 22L6 26L10 30Z" fill="#101010"/>
  <path d="M30 30L26 26L30 22L34 26L30 30Z" fill="#101010"/>
</svg>