<svg width="40" height="40" viewBox="0 0 40 40" fill="none" xmlns="http://www.w3.org/2000/svg">
  <rect width="40" height="40" rx="20" fill="#FBBA80"/>
  <path d="M20 8C16.8174 8 13.7652 9.26428 11.5147 11.5147C9.26428 13.7652 8 16.8174 8 20C8 23.1826 9.26428 26.2348 11.5147 28.4853C13.7652 30.7357 16.8174 32 20 32C23.1826 32 26.2348 30.7357 28.4853 28.4853C30.7357 26.2348 32 23.1826 32 20C32 16.8174 30.7357 13.7652 28.4853 11.5147C26.2348 9.26428 23.1826 8 20 8Z" fill="#101010"/>
  <path d="M20 12C18.4087 12 16.8826 12.6321 15.7574 13.7574C14.6321 14.8826 14 16.4087 14 18C14 19.5913 14.6321 21.1174 15.7574 22.2426C16.8826 23.3679 18.4087 24 20 24C21.5913 24 23.1174 23.3679 24.2426 22.2426C25.3679 21.1174 26 19.5913 26 18C26 16.4087 25.3679 14.8826 24.2426 13.7574C23.1174 12.6321 21.5913 12 20 12Z" fill="#FBBA80"/>
  <path d="M17 26H23L26 32H14L17 26Z" fill="#FBBA80"/>
  <path d="M23 26H17L14 20H26L23 26Z" fill="#FBBA80"/>
</svg>